<?xml version="1.0" encoding="utf-8"?>
<!-- Generator: Adobe Illustrator 16.0.0, SVG Export Plug-In . SVG Version: 6.00 Build 0)  -->
<!DOCTYPE svg PUBLIC "-//W3C//DTD SVG 1.1//EN" "http://www.w3.org/Graphics/SVG/1.1/DTD/svg11.dtd">
<svg version="1.1" id="圖層_1" xmlns="http://www.w3.org/2000/svg" xmlns:xlink="http://www.w3.org/1999/xlink" x="0px" y="0px"
	 width="40px" height="40px" viewBox="-16 -16 40 40" enable-background="new -16 -16 40 40" xml:space="preserve">
<g>
	<path fill="#B366FF" d="M4,23c-10.477,0-19-8.523-19-19s8.523-19,19-19S23-6.477,23,4S14.477,23,4,23z"/>
	<path fill="#FFFFFF" d="M4-14c9.925,0,18,8.075,18,18c0,9.925-8.075,18-18,18c-9.925,0-18-8.075-18-18C-14-5.925-5.925-14,4-14
		 M4-16C-7.05-16-16-7.05-16,4s8.95,20,20,20s20-8.95,20-20S15.05-16,4-16L4-16z"/>
</g>
<path fill="#FFFFFF" d="M14.869-4.792l1.482,1.48L0.249,12.791l-8.601-8.603l1.48-1.479L0.249,9.83L14.869-4.792z"/>
</svg>
